<svg width="209" height="64" viewBox="0 0 209 64" fill="none" xmlns="http://www.w3.org/2000/svg">
<g clip-path="url(#clip0_1_8880)">
<path d="M137.996 21.8669C137.167 21.8669 136.335 21.5798 135.659 20.994L129.597 15.7401C128.108 14.4481 127.947 12.1935 129.239 10.703C130.532 9.21347 132.784 9.05065 134.277 10.3436L140.337 15.5975C141.827 16.8896 141.989 19.1451 140.697 20.6346C139.99 21.4488 138.996 21.8669 137.996 21.8669Z" fill="white"/>
<path d="M149.601 16.376C147.748 16.376 146.181 14.9433 146.044 13.0654L145.46 5.06176C145.318 3.09433 146.796 1.38414 148.762 1.24058C150.721 1.09317 152.44 2.57501 152.584 4.54244L153.168 12.5451C153.312 14.5126 151.833 16.2228 149.866 16.3663C149.777 16.3731 149.688 16.376 149.601 16.376Z" fill="white"/>
<path d="M21.8008 38.5075V12.7362L30.081 8.55273V20.2321H37.258V27.6702H30.081V38.5075C30.081 39.4372 30.2997 40.2206 30.7352 40.8593C31.1716 41.4991 31.7179 41.9356 32.377 42.1668C32.9001 42.3614 33.4522 42.4587 34.0332 42.4587C34.1661 42.4587 34.3126 42.4491 34.4687 42.4298C35.2038 42.3701 35.8811 42.1678 36.5036 41.818L39.3507 48.1818C37.9941 49.8477 35.7944 50.6801 32.7546 50.6801C31.3027 50.6406 29.9316 50.3603 28.6425 49.8381C27.3533 49.3149 26.1904 48.5586 25.1566 47.571C24.1189 46.5834 23.3 45.3097 22.7016 43.7498C22.0995 42.1918 21.8008 40.4441 21.8008 38.5075Z" fill="white"/>
<path d="M42.3145 41.9919C42.3145 40.4821 42.5409 39.1303 42.9966 37.9395C43.4494 36.7486 43.9986 35.7813 44.6374 35.0336C45.2772 34.2908 46.152 33.6452 47.2677 33.1018C48.3806 32.5603 49.3729 32.1643 50.2459 31.9119C51.1169 31.6595 52.2538 31.4668 53.6595 31.33C55.0633 31.1951 56.1318 31.118 56.8708 31.0978C57.605 31.0785 58.6224 31.0689 59.9212 31.0689C59.9963 31.0689 60.0522 31.0689 60.0811 31.0689C60.11 31.0689 60.1543 31.0689 60.2121 31.0689C60.27 31.0689 60.3162 31.0689 60.3576 31.0689C60.0464 27.7766 58.2245 26.1291 54.8947 26.1291C53.7915 26.1291 52.7461 26.368 51.7576 26.8411C50.769 27.3161 50.0031 28.0088 49.4616 28.9184L43.9408 26.1291C44.4062 24.9093 45.2377 23.8109 46.4401 22.832C47.6406 21.8541 49.0434 21.0949 50.6534 20.5515C52.2605 20.01 53.9071 19.7383 55.5932 19.7383C57.2379 19.7383 58.818 19.9955 60.3287 20.5081C61.8395 21.0226 63.2221 21.7972 64.4842 22.832C65.7425 23.8697 66.7513 25.2735 67.5057 27.0454C68.2611 28.8182 68.6388 30.8473 68.6388 33.1317V50.2143H62.0726L61.6082 47.6003C58.1387 49.6545 54.964 50.6796 52.0784 50.6796C49.2477 50.6796 46.9141 49.8713 45.0758 48.2536C43.2327 46.6369 42.3145 44.549 42.3145 41.9919ZM50.5946 40.6854C50.5946 41.9851 51.0301 43.0045 51.9021 43.7512C52.774 44.4979 53.8657 44.8698 55.1856 44.8698C56.6174 44.8698 57.8574 44.4488 58.9037 43.6057C59.9501 42.7627 60.4733 41.5574 60.4733 39.9888L60.4145 36.0665H58.7004C58.0405 36.0665 57.4691 36.0809 56.9854 36.1098C56.5008 36.1387 55.9112 36.1956 55.2136 36.2842C54.517 36.3719 53.9244 36.5154 53.4417 36.7197C52.9571 36.924 52.4831 37.1899 52.0177 37.5184C51.5523 37.8489 51.1978 38.2796 50.9559 38.8124C50.7132 39.3442 50.5946 39.9686 50.5946 40.6854Z" fill="white"/>
<path d="M73.373 62.36V20.2316H81.6552V22.9631C84.1718 20.8135 87.0892 19.7383 90.4007 19.7383C92.742 19.7383 94.8193 20.4792 96.6325 21.9601C98.442 23.44 99.8005 25.3361 100.7 27.6485C101.6 29.9618 102.05 32.4428 102.05 35.0933C102.05 36.7207 101.92 38.2738 101.658 39.745C101.395 41.2201 100.961 42.6297 100.352 43.9786C99.7417 45.3246 98.9844 46.4885 98.0845 47.4683C97.1836 48.4492 96.0438 49.2277 94.6699 49.8106C93.2931 50.3925 91.764 50.6816 90.0799 50.6816C86.7848 50.6816 83.9781 49.614 81.6542 47.4732V62.3609L73.373 62.36ZM82.5117 28.7979C81.3382 30.3838 80.7543 32.4823 80.7543 35.0924C80.7543 37.7025 81.3382 39.8029 82.5117 41.3868C83.6823 42.9727 85.2172 43.7666 87.1172 43.7666C89.1106 43.7666 90.7196 42.9737 91.9404 41.3868C93.1621 39.8019 93.7719 37.7025 93.7719 35.0924C93.7719 32.4833 93.1621 30.3848 91.9404 28.7979C90.7196 27.213 89.1106 26.4201 87.1172 26.4201C85.2162 26.4201 83.6823 27.213 82.5117 28.7979Z" fill="white"/>
<path d="M105.015 35.1078C105.015 33.6761 105.207 32.2434 105.597 30.8087C105.983 29.376 106.587 27.9963 107.412 26.6686C108.235 25.3429 109.214 24.1655 110.348 23.1375C111.481 22.1123 112.863 21.2885 114.503 20.668C116.138 20.0495 117.895 19.7383 119.777 19.7383C121.421 19.7383 122.932 19.9223 124.307 20.2904C125.684 20.6594 126.844 21.1585 127.795 21.7866C128.742 22.4177 129.597 23.1577 130.352 24.0094C131.108 24.8621 131.703 25.7533 132.139 26.6821C132.573 27.6109 132.94 28.5715 133.243 29.5591C133.542 30.5467 133.752 31.487 133.867 32.3763C133.964 33.2675 134.021 34.1183 134.042 34.9334C134.042 35.1271 134.042 35.3207 134.042 35.5144C134.042 36.0568 134.021 36.5405 133.983 36.9664C133.925 37.5098 133.847 37.9366 133.752 38.2449H113.297C113.625 39.7759 114.43 40.9918 115.708 41.8917C116.987 42.7916 118.555 43.2425 120.415 43.2425C121.615 43.2425 122.742 43.0103 123.8 42.5449C124.856 42.0796 125.655 41.461 126.198 40.6844L132.618 44.3756C131.203 46.2736 129.315 47.7978 126.953 48.9511C124.588 50.1044 122.196 50.6796 119.777 50.6796C117.412 50.6796 115.275 50.2393 113.371 49.3577C111.462 48.4781 109.913 47.3007 108.721 45.8285C107.53 44.3572 106.614 42.7001 105.974 40.8588C105.335 39.0205 105.015 37.1041 105.015 35.1078ZM113.179 32.1162H126.312C125.943 30.354 125.182 28.9646 124.032 27.9472C122.879 26.9307 121.461 26.422 119.776 26.422C117.953 26.422 116.451 26.9413 115.272 27.9761C114.089 29.0128 113.391 30.3925 113.179 32.1162Z" fill="white"/>
<path d="M137.005 35.2388C137.005 30.5862 138.345 26.8401 141.029 23.9988C143.712 21.1585 147.25 19.7383 151.649 19.7383C154.032 19.7383 156.297 20.2316 158.448 21.2201C160.599 22.2077 162.254 23.5257 163.416 25.1723L156.88 28.8076C156.335 28.1283 155.615 27.581 154.715 27.1629C153.813 26.7457 152.869 26.5366 151.881 26.5366C149.887 26.5366 148.288 27.3286 147.086 28.9097C145.884 30.4917 145.286 32.5815 145.286 35.1791C145.286 37.742 145.89 39.8125 147.102 41.3936C148.31 42.9746 149.905 43.7666 151.881 43.7666C152.869 43.7666 153.814 43.5576 154.715 43.1404C155.616 42.7232 156.335 42.1759 156.88 41.4967L163.416 45.1251C162.195 46.7852 160.509 48.1264 158.361 49.1487C156.211 50.1719 153.973 50.6816 151.649 50.6816C147.25 50.6816 143.712 49.2643 141.029 46.4297C138.345 43.5951 137.005 39.8645 137.005 35.2388Z" fill="white"/>
<path d="M168.762 38.5075V12.7362L177.044 8.55273V20.2321H184.219V27.6702H177.044V38.5075C177.044 39.4372 177.262 40.2206 177.698 40.8593C178.132 41.4991 178.679 41.9356 179.339 42.1668C179.861 42.3614 180.413 42.4587 180.995 42.4587C181.128 42.4587 181.274 42.4491 181.431 42.4298C182.166 42.3701 182.843 42.1678 183.464 41.818L186.312 48.1818C184.955 49.8477 182.756 50.6801 179.716 50.6801C178.263 50.6406 176.892 50.3603 175.604 49.8381C174.314 49.3149 173.151 48.5586 172.118 47.571C171.08 46.5834 170.26 45.3097 169.663 43.7498C169.062 42.1918 168.762 40.4441 168.762 38.5075Z" fill="white"/>
</g>
<defs>
<clipPath id="clip0_1_8880">
<rect width="208.113" height="63.59" fill="white"/>
</clipPath>
</defs>
</svg>
